<svg xmlns="http://www.w3.org/2000/svg" xmlns:xlink="http://www.w3.org/1999/xlink" viewBox="0 0 16 16"><defs><style>.cls-1{fill:url(#New_Gradient_Swatch_1);}.cls-2{fill:url(#New_Gradient_Swatch_1-2);}.cls-3,.cls-4,.cls-5{fill:none;stroke-miterlimit:10;stroke-width:0.38px;}.cls-3{stroke:url(#Sky);}.cls-4{stroke:url(#Sky-2);}.cls-5{stroke:url(#Sky-3);}</style><linearGradient id="New_Gradient_Swatch_1" x1="8" y1="16" x2="8" gradientUnits="userSpaceOnUse"><stop offset="0.04" stop-color="#603813"/><stop offset="0.41" stop-color="#db9833"/><stop offset="0.51" stop-color="#fbb03b"/><stop offset="0.67" stop-color="#e59f35"/><stop offset="0.74" stop-color="#d89532"/><stop offset="0.81" stop-color="#e49f35"/><stop offset="0.91" stop-color="#efa738"/></linearGradient><linearGradient id="New_Gradient_Swatch_1-2" x1="2" y1="8" x2="14" y2="8" xlink:href="#New_Gradient_Swatch_1"/><linearGradient id="Sky" x1="5.12" y1="9.25" x2="10.88" y2="9.25" gradientUnits="userSpaceOnUse"><stop offset="0" stop-color="#cce0f4"/><stop offset="0.06" stop-color="#c3dcf2"/><stop offset="0.17" stop-color="#a9d2ee"/><stop offset="0.31" stop-color="#80c2e7"/><stop offset="0.46" stop-color="#47acde"/><stop offset="0.57" stop-color="#1e9cd7"/><stop offset="0.87" stop-color="#0075be"/><stop offset="0.99" stop-color="#005b97"/></linearGradient><linearGradient id="Sky-2" x1="5.12" y1="7.75" x2="10.88" y2="7.75" xlink:href="#Sky"/><linearGradient id="Sky-3" x1="5.12" y1="6.25" x2="10.88" y2="6.25" xlink:href="#Sky"/></defs><title>Asset 12</title><g id="Layer_2" data-name="Layer 2"><g id="Layer_9" data-name="Layer 9"><circle class="cls-1" cx="8" cy="8" r="8"/><circle class="cls-2" cx="8" cy="8" r="6"/><path class="cls-3" d="M5.25,9.75c.77-.79,1.43-1.12,2-1s.83.85,1.5,1,1.23-.21,2-1"/><path class="cls-4" d="M5.25,8.25c.77-.79,1.43-1.12,2-1s.83.85,1.5,1,1.23-.21,2-1"/><path class="cls-5" d="M5.25,6.75c.77-.79,1.43-1.12,2-1s.83.85,1.5,1,1.23-.21,2-1"/></g></g></svg>