<svg xmlns="http://www.w3.org/2000/svg" xmlns:xlink="http://www.w3.org/1999/xlink" viewBox="0 0 16 16"><defs><style>.cls-1{fill:url(#New_Gradient_Swatch_1);}.cls-2{fill:url(#New_Gradient_Swatch_1-2);}.cls-3,.cls-4{fill:none;stroke-miterlimit:10;stroke-width:0.25px;}.cls-3{stroke:url(#Sky);}.cls-4{stroke:url(#Sky-2);}</style><linearGradient id="New_Gradient_Swatch_1" x1="8" y1="16" x2="8" gradientUnits="userSpaceOnUse"><stop offset="0.04" stop-color="#603813"/><stop offset="0.41" stop-color="#db9833"/><stop offset="0.51" stop-color="#fbb03b"/><stop offset="0.67" stop-color="#e59f35"/><stop offset="0.74" stop-color="#d89532"/><stop offset="0.81" stop-color="#e49f35"/><stop offset="0.91" stop-color="#efa738"/></linearGradient><linearGradient id="New_Gradient_Swatch_1-2" x1="2" y1="8" x2="14" y2="8" xlink:href="#New_Gradient_Swatch_1"/><linearGradient id="Sky" x1="3.9" y1="7.53" x2="8.43" y2="7.53" gradientUnits="userSpaceOnUse"><stop offset="0" stop-color="#cce0f4"/><stop offset="0.06" stop-color="#c3dcf2"/><stop offset="0.17" stop-color="#a9d2ee"/><stop offset="0.31" stop-color="#80c2e7"/><stop offset="0.46" stop-color="#47acde"/><stop offset="0.57" stop-color="#1e9cd7"/><stop offset="0.87" stop-color="#0075be"/><stop offset="0.99" stop-color="#005b97"/></linearGradient><linearGradient id="Sky-2" x1="-301.33" y1="-79.43" x2="-296.8" y2="-79.43" gradientTransform="translate(-291.25 79.72) rotate(151.64)" xlink:href="#Sky"/></defs><title>Asset 15</title><g id="Layer_2" data-name="Layer 2"><g id="Layer_6" data-name="Layer 6"><circle class="cls-1" cx="8" cy="8" r="8"/><circle class="cls-2" cx="8" cy="8" r="6"/><path class="cls-3" d="M4,8.5A2.5,2.5,0,0,0,7.5,9a2,2,0,0,0,.4-2.8,1.6,1.6,0,0,0-2.24-.32A1.28,1.28,0,0,0,5.4,7.67a1,1,0,0,0,1.44.21A.83.83,0,0,0,7,6.73a.66.66,0,0,0-.92-.13"/><path class="cls-4" d="M11.08,5.66A2.5,2.5,0,0,0,7.76,6.88a2,2,0,0,0,1,2.65,1.61,1.61,0,0,0,2.13-.78,1.29,1.29,0,0,0-.63-1.7,1,1,0,0,0-1.36.5.82.82,0,0,0,.4,1.09.65.65,0,0,0,.87-.32"/></g></g></svg>