<svg xmlns="http://www.w3.org/2000/svg" xmlns:xlink="http://www.w3.org/1999/xlink" viewBox="0 0 16 16"><defs><style>.cls-1{fill:url(#New_Gradient_Swatch_1);}.cls-2{fill:url(#New_Gradient_Swatch_1-2);}.cls-3{fill:#534741;stroke-miterlimit:10;stroke-width:0.13px;stroke:url(#Sky);}</style><linearGradient id="New_Gradient_Swatch_1" x1="8" y1="16" x2="8" gradientUnits="userSpaceOnUse"><stop offset="0.04" stop-color="#603813"/><stop offset="0.41" stop-color="#db9833"/><stop offset="0.51" stop-color="#fbb03b"/><stop offset="0.67" stop-color="#e59f35"/><stop offset="0.74" stop-color="#d89532"/><stop offset="0.81" stop-color="#e49f35"/><stop offset="0.91" stop-color="#efa738"/></linearGradient><linearGradient id="New_Gradient_Swatch_1-2" x1="2" y1="8" x2="14" y2="8" xlink:href="#New_Gradient_Swatch_1"/><linearGradient id="Sky" x1="4.06" y1="7.93" x2="11.92" y2="7.93" gradientUnits="userSpaceOnUse"><stop offset="0" stop-color="#cce0f4"/><stop offset="0.06" stop-color="#c3dcf2"/><stop offset="0.17" stop-color="#a9d2ee"/><stop offset="0.31" stop-color="#80c2e7"/><stop offset="0.46" stop-color="#47acde"/><stop offset="0.57" stop-color="#1e9cd7"/><stop offset="0.87" stop-color="#0075be"/><stop offset="0.99" stop-color="#005b97"/></linearGradient></defs><title>Asset 17</title><g id="Layer_2" data-name="Layer 2"><g id="Layer_4" data-name="Layer 4"><circle class="cls-1" cx="8" cy="8" r="8"/><circle class="cls-2" cx="8" cy="8" r="6"/><polygon class="cls-3" points="8.06 4.27 8.56 6.22 10.07 4.89 9.43 6.8 11.42 6.51 9.85 7.77 11.69 8.6 9.69 8.8 10.78 10.49 8.98 9.59 8.99 11.6 7.97 9.87 6.89 11.56 6.96 9.55 5.14 10.4 6.29 8.75 4.29 8.47 6.16 7.7 4.63 6.39 6.61 6.75 6.04 4.82 7.5 6.2 8.06 4.27"/></g></g></svg>