<svg xmlns="http://www.w3.org/2000/svg" xmlns:xlink="http://www.w3.org/1999/xlink" viewBox="0 0 16 16"><defs><style>.cls-1{fill:url(#New_Gradient_Swatch_1);}.cls-2{fill:url(#New_Gradient_Swatch_1-2);}.cls-3,.cls-4{fill:#534741;stroke-miterlimit:10;stroke-width:0.09px;}.cls-3{stroke:url(#Sky);}.cls-4{stroke:url(#Sky-2);}</style><linearGradient id="New_Gradient_Swatch_1" x1="8" y1="16" x2="8" gradientUnits="userSpaceOnUse"><stop offset="0.04" stop-color="#603813"/><stop offset="0.41" stop-color="#db9833"/><stop offset="0.51" stop-color="#fbb03b"/><stop offset="0.67" stop-color="#e59f35"/><stop offset="0.74" stop-color="#d89532"/><stop offset="0.81" stop-color="#e49f35"/><stop offset="0.91" stop-color="#efa738"/></linearGradient><linearGradient id="New_Gradient_Swatch_1-2" x1="2" y1="8" x2="14" y2="8" xlink:href="#New_Gradient_Swatch_1"/><linearGradient id="Sky" x1="4.95" y1="8" x2="8.08" y2="8" gradientUnits="userSpaceOnUse"><stop offset="0" stop-color="#cce0f4"/><stop offset="0.06" stop-color="#c3dcf2"/><stop offset="0.17" stop-color="#a9d2ee"/><stop offset="0.31" stop-color="#80c2e7"/><stop offset="0.46" stop-color="#47acde"/><stop offset="0.57" stop-color="#1e9cd7"/><stop offset="0.87" stop-color="#0075be"/><stop offset="0.99" stop-color="#005b97"/></linearGradient><linearGradient id="Sky-2" x1="7.92" x2="11.05" xlink:href="#Sky"/></defs><title>Asset 18</title><g id="Layer_2" data-name="Layer 2"><g id="Layer_3" data-name="Layer 3"><circle class="cls-1" cx="8" cy="8" r="8"/><circle class="cls-2" cx="8" cy="8" r="6"/><path class="cls-3" d="M7,8A2.65,2.65,0,0,1,8,5.84,1.65,1.65,0,0,0,7,5.5,2.3,2.3,0,0,0,5,8a2.3,2.3,0,0,0,2,2.5,1.65,1.65,0,0,0,1-.34A2.65,2.65,0,0,1,7,8Z"/><path class="cls-4" d="M9,5.5a1.65,1.65,0,0,0-1,.34A2.65,2.65,0,0,1,9,8a2.65,2.65,0,0,1-1,2.16,1.65,1.65,0,0,0,1,.34A2.3,2.3,0,0,0,11,8,2.3,2.3,0,0,0,9,5.5Z"/></g></g></svg>