<svg xmlns="http://www.w3.org/2000/svg" xmlns:xlink="http://www.w3.org/1999/xlink" viewBox="0 0 16 16"><defs><style>.cls-1{fill:url(#New_Gradient_Swatch_1);}.cls-2{fill:url(#New_Gradient_Swatch_1-2);}.cls-3{fill:#534741;}.cls-4{fill:url(#Sky);}</style><linearGradient id="New_Gradient_Swatch_1" x1="8" y1="16" x2="8" gradientUnits="userSpaceOnUse"><stop offset="0.04" stop-color="#603813"/><stop offset="0.41" stop-color="#db9833"/><stop offset="0.51" stop-color="#fbb03b"/><stop offset="0.67" stop-color="#e59f35"/><stop offset="0.74" stop-color="#d89532"/><stop offset="0.81" stop-color="#e49f35"/><stop offset="0.91" stop-color="#efa738"/></linearGradient><linearGradient id="New_Gradient_Swatch_1-2" x1="2" y1="8" x2="14" y2="8" xlink:href="#New_Gradient_Swatch_1"/><linearGradient id="Sky" x1="5.09" y1="7.43" x2="11.41" y2="7.43" gradientUnits="userSpaceOnUse"><stop offset="0" stop-color="#cce0f4"/><stop offset="0.06" stop-color="#c3dcf2"/><stop offset="0.17" stop-color="#a9d2ee"/><stop offset="0.31" stop-color="#80c2e7"/><stop offset="0.46" stop-color="#47acde"/><stop offset="0.57" stop-color="#1e9cd7"/><stop offset="0.87" stop-color="#0075be"/><stop offset="0.99" stop-color="#005b97"/></linearGradient></defs><title>Asset 20</title><g id="Layer_2" data-name="Layer 2"><g id="Layer_1-2" data-name="Layer 1"><circle class="cls-1" cx="8" cy="8" r="8"/><circle class="cls-2" cx="8" cy="8" r="6"/><polygon class="cls-3" points="8.25 4.43 9.22 6.41 11.41 6.72 9.83 8.26 10.2 10.44 8.25 9.41 6.3 10.44 6.67 8.26 5.09 6.72 7.28 6.41 8.25 4.43"/><path class="cls-4" d="M8.25,4.71l.86,1.75,0,.06h.07l1.93.28L9.74,8.17l-.05.05v.06L10,10.21,8.31,9.3l-.06,0-.06,0-1.72.91L6.8,8.28V8.22l0-.05L5.36,6.81l1.93-.28h.07l0-.06.86-1.75m0-.28-1,2-2.18.31L6.67,8.26,6.3,10.43l2-1,1.95,1L9.83,8.26l1.58-1.54L9.23,6.41l-1-2Z"/></g></g></svg>