<svg xmlns="http://www.w3.org/2000/svg" xmlns:xlink="http://www.w3.org/1999/xlink" viewBox="0 0 16 16"><defs><style>.cls-1{fill:url(#New_Gradient_Swatch_1);}.cls-2{fill:url(#New_Gradient_Swatch_1-2);}.cls-3{fill:#534741;}.cls-4{fill:url(#Sky);}.cls-5{fill:url(#Sky-2);}.cls-6,.cls-7,.cls-8,.cls-9{fill:none;stroke-miterlimit:10;stroke-width:0.13px;}.cls-6{stroke:url(#Sky-3);}.cls-7{stroke:url(#Sky-4);}.cls-8{stroke:url(#Sky-5);}.cls-9{stroke:url(#Sky-6);}</style><linearGradient id="New_Gradient_Swatch_1" x1="8" y1="16" x2="8" gradientUnits="userSpaceOnUse"><stop offset="0.04" stop-color="#603813"/><stop offset="0.41" stop-color="#db9833"/><stop offset="0.51" stop-color="#fbb03b"/><stop offset="0.67" stop-color="#e59f35"/><stop offset="0.74" stop-color="#d89532"/><stop offset="0.81" stop-color="#e49f35"/><stop offset="0.91" stop-color="#efa738"/></linearGradient><linearGradient id="New_Gradient_Swatch_1-2" x1="2" y1="8" x2="14" y2="8" xlink:href="#New_Gradient_Swatch_1"/><linearGradient id="Sky" x1="5" y1="7.75" x2="11" y2="7.75" gradientUnits="userSpaceOnUse"><stop offset="0" stop-color="#cce0f4"/><stop offset="0.06" stop-color="#c3dcf2"/><stop offset="0.17" stop-color="#a9d2ee"/><stop offset="0.31" stop-color="#80c2e7"/><stop offset="0.46" stop-color="#47acde"/><stop offset="0.57" stop-color="#1e9cd7"/><stop offset="0.87" stop-color="#0075be"/><stop offset="0.99" stop-color="#005b97"/></linearGradient><linearGradient id="Sky-2" x1="6.5" x2="9.5" xlink:href="#Sky"/><linearGradient id="Sky-3" x1="7.94" y1="9.13" x2="8.06" y2="9.13" xlink:href="#Sky"/><linearGradient id="Sky-4" x1="5" x2="8" xlink:href="#Sky"/><linearGradient id="Sky-5" x1="7.94" y1="6.37" x2="8.06" y2="6.37" xlink:href="#Sky"/><linearGradient id="Sky-6" x1="8" x2="11" xlink:href="#Sky"/></defs><title>Asset 13</title><g id="Layer_2" data-name="Layer 2"><g id="Layer_8" data-name="Layer 8"><circle class="cls-1" cx="8" cy="8" r="8"/><circle class="cls-2" cx="8" cy="8" r="6"/><ellipse class="cls-3" cx="8" cy="7.75" rx="3" ry="2.75"/><ellipse class="cls-3" cx="8" cy="7.75" rx="1.5" ry="1.38"/><line class="cls-3" x1="8" y1="7.75" x2="8" y2="10.5"/><line class="cls-3" x1="8" y1="7.75" x2="5" y2="7.75"/><line class="cls-3" x1="8" y1="7.75" x2="8" y2="5"/><line class="cls-3" x1="8" y1="7.75" x2="11" y2="7.75"/><path class="cls-4" d="M8,5.13a2.75,2.75,0,0,1,2.87,2.62A2.76,2.76,0,0,1,8,10.38,2.77,2.77,0,0,1,5.12,7.75,2.76,2.76,0,0,1,8,5.13M8,5A2.88,2.88,0,0,0,5,7.75,2.88,2.88,0,0,0,8,10.5a2.88,2.88,0,0,0,3-2.75A2.88,2.88,0,0,0,8,5Z"/><path class="cls-5" d="M8,6.5A1.31,1.31,0,0,1,9.37,7.75,1.31,1.31,0,0,1,8,9,1.32,1.32,0,0,1,6.62,7.75,1.32,1.32,0,0,1,8,6.5m0-.12A1.44,1.44,0,0,0,6.5,7.75,1.44,1.44,0,0,0,8,9.13,1.44,1.44,0,0,0,9.5,7.75,1.44,1.44,0,0,0,8,6.38Z"/><line class="cls-6" x1="8" y1="7.75" x2="8" y2="10.5"/><line class="cls-7" x1="8" y1="7.75" x2="5" y2="7.75"/><line class="cls-8" x1="8" y1="7.75" x2="8" y2="5"/><line class="cls-9" x1="8" y1="7.75" x2="11" y2="7.75"/></g></g></svg>