<svg xmlns="http://www.w3.org/2000/svg" xmlns:xlink="http://www.w3.org/1999/xlink" viewBox="0 0 32 32"><defs><style>.cls-1{fill:url(#New_Gradient_Swatch_1);}.cls-2{fill:url(#New_Gradient_Swatch_1-2);}.cls-3{fill:#534741;}.cls-4{fill:url(#Sky);}</style><linearGradient id="New_Gradient_Swatch_1" x1="16" y1="32" x2="16" gradientUnits="userSpaceOnUse"><stop offset="0.04" stop-color="#603813"/><stop offset="0.41" stop-color="#db9833"/><stop offset="0.51" stop-color="#fbb03b"/><stop offset="0.67" stop-color="#e59f35"/><stop offset="0.74" stop-color="#d89532"/><stop offset="0.81" stop-color="#e49f35"/><stop offset="0.91" stop-color="#efa738"/></linearGradient><linearGradient id="New_Gradient_Swatch_1-2" x1="4" y1="16" x2="28" y2="16" xlink:href="#New_Gradient_Swatch_1"/><linearGradient id="Sky" x1="13.31" y1="11.19" x2="19.76" y2="17.47" gradientUnits="userSpaceOnUse"><stop offset="0" stop-color="#cce0f4"/><stop offset="0.06" stop-color="#c3dcf2"/><stop offset="0.17" stop-color="#a9d2ee"/><stop offset="0.31" stop-color="#80c2e7"/><stop offset="0.46" stop-color="#47acde"/><stop offset="0.57" stop-color="#1e9cd7"/><stop offset="0.87" stop-color="#0075be"/><stop offset="0.99" stop-color="#005b97"/></linearGradient></defs><title>Asset 9</title><g id="Layer_2" data-name="Layer 2"><g id="Layer_2-2" data-name="Layer 2"><circle class="cls-1" cx="16" cy="16" r="16"/><circle class="cls-2" cx="16" cy="16" r="12"/><polygon class="cls-3" points="20.04 11.45 16.55 15.04 12.96 11.55 10.17 14.41 16.62 20.69 22.9 14.24 20.04 11.45"/><path class="cls-4" d="M20,11.81l2.51,2.44-5.93,6.09-6.09-5.93L13,11.9l3.4,3.31.18.18.18-.18L20,11.81m0-.36L16.55,15,13,11.55l-2.79,2.86,6.45,6.28,6.28-6.45L20,11.45Z"/></g></g></svg>