<svg xmlns="http://www.w3.org/2000/svg" xmlns:xlink="http://www.w3.org/1999/xlink" viewBox="0 0 32 32"><defs><style>.cls-1{fill:url(#New_Gradient_Swatch_1);}.cls-2{fill:url(#New_Gradient_Swatch_1-2);}.cls-3,.cls-4{fill:none;stroke-miterlimit:10;stroke-width:0.5px;}.cls-3{stroke:url(#Sky);}.cls-4{stroke:url(#Sky-2);}</style><linearGradient id="New_Gradient_Swatch_1" x1="16" y1="32" x2="16" gradientUnits="userSpaceOnUse"><stop offset="0.04" stop-color="#603813"/><stop offset="0.41" stop-color="#db9833"/><stop offset="0.51" stop-color="#fbb03b"/><stop offset="0.67" stop-color="#e59f35"/><stop offset="0.74" stop-color="#d89532"/><stop offset="0.81" stop-color="#e49f35"/><stop offset="0.91" stop-color="#efa738"/></linearGradient><linearGradient id="New_Gradient_Swatch_1-2" x1="4" y1="16" x2="28" y2="16" xlink:href="#New_Gradient_Swatch_1"/><linearGradient id="Sky" x1="7.8" y1="15.06" x2="16.85" y2="15.06" gradientUnits="userSpaceOnUse"><stop offset="0" stop-color="#cce0f4"/><stop offset="0.06" stop-color="#c3dcf2"/><stop offset="0.17" stop-color="#a9d2ee"/><stop offset="0.31" stop-color="#80c2e7"/><stop offset="0.46" stop-color="#47acde"/><stop offset="0.57" stop-color="#1e9cd7"/><stop offset="0.87" stop-color="#0075be"/><stop offset="0.99" stop-color="#005b97"/></linearGradient><linearGradient id="Sky-2" x1="-297.25" y1="-71.8" x2="-288.2" y2="-71.8" gradientTransform="translate(-272.41 90.96) rotate(151.64)" xlink:href="#Sky"/></defs><title>Asset 5</title><g id="Layer_2" data-name="Layer 2"><g id="Layer_6" data-name="Layer 6"><circle class="cls-1" cx="16" cy="16" r="16"/><circle class="cls-2" cx="16" cy="16" r="12"/><path class="cls-3" d="M8,17a5,5,0,0,0,7,1,4,4,0,0,0,.8-5.6,3.2,3.2,0,0,0-4.48-.64,2.55,2.55,0,0,0-.51,3.58,2,2,0,0,0,2.87.41A1.63,1.63,0,0,0,14,13.46a1.3,1.3,0,0,0-1.83-.26"/><path class="cls-4" d="M22.16,11.31a5,5,0,0,0-6.63,2.45,4,4,0,0,0,2,5.3,3.2,3.2,0,0,0,4.25-1.56,2.57,2.57,0,0,0-1.25-3.4,2.06,2.06,0,0,0-2.72,1,1.65,1.65,0,0,0,.8,2.18,1.32,1.32,0,0,0,1.74-.64"/></g></g></svg>