<svg xmlns="http://www.w3.org/2000/svg" xmlns:xlink="http://www.w3.org/1999/xlink" viewBox="0 0 32 32"><defs><style>.cls-1{fill:url(#New_Gradient_Swatch_1);}.cls-2{fill:url(#New_Gradient_Swatch_1-2);}.cls-3,.cls-4,.cls-5{fill:none;stroke-miterlimit:10;stroke-width:0.75px;}.cls-3{stroke:url(#Sky);}.cls-4{stroke:url(#Sky-2);}.cls-5{stroke:url(#Sky-3);}</style><linearGradient id="New_Gradient_Swatch_1" x1="16" y1="32" x2="16" gradientUnits="userSpaceOnUse"><stop offset="0.04" stop-color="#603813"/><stop offset="0.41" stop-color="#db9833"/><stop offset="0.51" stop-color="#fbb03b"/><stop offset="0.67" stop-color="#e59f35"/><stop offset="0.74" stop-color="#d89532"/><stop offset="0.81" stop-color="#e49f35"/><stop offset="0.91" stop-color="#efa738"/></linearGradient><linearGradient id="New_Gradient_Swatch_1-2" x1="4" y1="16" x2="28" y2="16" xlink:href="#New_Gradient_Swatch_1"/><linearGradient id="Sky" x1="10.23" y1="18.5" x2="21.77" y2="18.5" gradientUnits="userSpaceOnUse"><stop offset="0" stop-color="#cce0f4"/><stop offset="0.06" stop-color="#c3dcf2"/><stop offset="0.17" stop-color="#a9d2ee"/><stop offset="0.31" stop-color="#80c2e7"/><stop offset="0.46" stop-color="#47acde"/><stop offset="0.57" stop-color="#1e9cd7"/><stop offset="0.87" stop-color="#0075be"/><stop offset="0.99" stop-color="#005b97"/></linearGradient><linearGradient id="Sky-2" x1="10.23" y1="15.5" x2="21.77" y2="15.5" xlink:href="#Sky"/><linearGradient id="Sky-3" x1="10.23" y1="12.5" x2="21.77" y2="12.5" xlink:href="#Sky"/></defs><title>Asset 2</title><g id="Layer_2" data-name="Layer 2"><g id="Layer_9" data-name="Layer 9"><circle class="cls-1" cx="16" cy="16" r="16"/><circle class="cls-2" cx="16" cy="16" r="12"/><path class="cls-3" d="M10.5,19.5c1.53-1.58,2.87-2.25,4-2,1.34.29,1.66,1.71,3,2,1.13.25,2.47-.42,4-2"/><path class="cls-4" d="M10.5,16.5c1.53-1.58,2.87-2.25,4-2,1.34.29,1.66,1.71,3,2,1.13.25,2.47-.42,4-2"/><path class="cls-5" d="M10.5,13.5c1.53-1.58,2.87-2.25,4-2,1.34.29,1.66,1.71,3,2,1.13.25,2.47-.42,4-2"/></g></g></svg>