<svg xmlns="http://www.w3.org/2000/svg" xmlns:xlink="http://www.w3.org/1999/xlink" viewBox="0 0 32 32"><defs><style>.cls-1{fill:url(#New_Gradient_Swatch_1);}.cls-2{fill:url(#New_Gradient_Swatch_1-2);}.cls-3,.cls-4{fill:#534741;stroke-miterlimit:10;stroke-width:0.19px;}.cls-3{stroke:url(#Sky);}.cls-4{stroke:url(#Sky-2);}</style><linearGradient id="New_Gradient_Swatch_1" x1="16" y1="32" x2="16" gradientUnits="userSpaceOnUse"><stop offset="0.04" stop-color="#603813"/><stop offset="0.41" stop-color="#db9833"/><stop offset="0.51" stop-color="#fbb03b"/><stop offset="0.67" stop-color="#e59f35"/><stop offset="0.74" stop-color="#d89532"/><stop offset="0.81" stop-color="#e49f35"/><stop offset="0.91" stop-color="#efa738"/></linearGradient><linearGradient id="New_Gradient_Swatch_1-2" x1="4" y1="16" x2="28" y2="16" xlink:href="#New_Gradient_Swatch_1"/><linearGradient id="Sky" x1="9.91" y1="16" x2="16.16" y2="16" gradientUnits="userSpaceOnUse"><stop offset="0" stop-color="#cce0f4"/><stop offset="0.06" stop-color="#c3dcf2"/><stop offset="0.17" stop-color="#a9d2ee"/><stop offset="0.31" stop-color="#80c2e7"/><stop offset="0.46" stop-color="#47acde"/><stop offset="0.57" stop-color="#1e9cd7"/><stop offset="0.87" stop-color="#0075be"/><stop offset="0.99" stop-color="#005b97"/></linearGradient><linearGradient id="Sky-2" x1="15.84" y1="16" x2="22.09" y2="16" xlink:href="#Sky"/></defs><title>Asset 8</title><g id="Layer_2" data-name="Layer 2"><g id="Layer_3" data-name="Layer 3"><circle class="cls-1" cx="16" cy="16" r="16"/><circle class="cls-2" cx="16" cy="16" r="12"/><path class="cls-3" d="M14,16a5.35,5.35,0,0,1,2-4.33A3.43,3.43,0,0,0,14,11c-2.21,0-4,2.24-4,5s1.79,5,4,5a3.43,3.43,0,0,0,2-.67A5.35,5.35,0,0,1,14,16Z"/><path class="cls-4" d="M18,11a3.43,3.43,0,0,0-2,.67A5.35,5.35,0,0,1,18,16a5.35,5.35,0,0,1-2,4.33A3.43,3.43,0,0,0,18,21c2.21,0,4-2.24,4-5S20.21,11,18,11Z"/></g></g></svg>