<svg xmlns="http://www.w3.org/2000/svg" xmlns:xlink="http://www.w3.org/1999/xlink" viewBox="0 0 32 32"><defs><style>.cls-1{fill:url(#New_Gradient_Swatch_1);}.cls-2{fill:url(#New_Gradient_Swatch_1-2);}.cls-3{fill:#534741;}.cls-4{fill:url(#Sky);}</style><linearGradient id="New_Gradient_Swatch_1" x1="16" y1="32" x2="16" gradientUnits="userSpaceOnUse"><stop offset="0.04" stop-color="#603813"/><stop offset="0.41" stop-color="#db9833"/><stop offset="0.51" stop-color="#fbb03b"/><stop offset="0.67" stop-color="#e59f35"/><stop offset="0.74" stop-color="#d89532"/><stop offset="0.81" stop-color="#e49f35"/><stop offset="0.91" stop-color="#efa738"/></linearGradient><linearGradient id="New_Gradient_Swatch_1-2" x1="4" y1="16" x2="28" y2="16" xlink:href="#New_Gradient_Swatch_1"/><linearGradient id="Sky" x1="10.19" y1="14.87" x2="22.81" y2="14.87" gradientUnits="userSpaceOnUse"><stop offset="0" stop-color="#cce0f4"/><stop offset="0.06" stop-color="#c3dcf2"/><stop offset="0.17" stop-color="#a9d2ee"/><stop offset="0.31" stop-color="#80c2e7"/><stop offset="0.46" stop-color="#47acde"/><stop offset="0.57" stop-color="#1e9cd7"/><stop offset="0.87" stop-color="#0075be"/><stop offset="0.99" stop-color="#005b97"/></linearGradient></defs><title>Asset 10</title><g id="Layer_2" data-name="Layer 2"><g id="Layer_1-2" data-name="Layer 1"><circle class="cls-1" cx="16" cy="16" r="16"/><circle class="cls-2" cx="16" cy="16" r="12"/><polygon class="cls-3" points="16.5 8.86 18.45 12.81 22.81 13.45 19.66 16.53 20.4 20.87 16.5 18.82 12.6 20.87 13.34 16.53 10.19 13.45 14.55 12.81 16.5 8.86"/><path class="cls-4" d="M16.5,9.43l1.73,3.5.05.11.13,0,3.87.56-2.8,2.73-.09.09,0,.13.66,3.84L16.62,18.6l-.12-.06-.12.06-3.45,1.81.66-3.84,0-.13-.09-.09-2.8-2.73,3.87-.56.13,0,0-.11,1.73-3.5m0-.57-1.95,4-4.36.63,3.15,3.08-.74,4.34,3.9-2.05,3.9,2.05-.74-4.34,3.15-3.08-4.36-.63-1.95-4Z"/></g></g></svg>