<svg xmlns="http://www.w3.org/2000/svg" xmlns:xlink="http://www.w3.org/1999/xlink" viewBox="0 0 32 32"><defs><style>.cls-1{fill:url(#New_Gradient_Swatch_1);}.cls-2{fill:url(#New_Gradient_Swatch_1-2);}.cls-3{fill:#534741;}.cls-4{fill:url(#Sky);}.cls-5{fill:url(#Sky-2);}.cls-6,.cls-7,.cls-8,.cls-9{fill:none;stroke-miterlimit:10;stroke-width:0.25px;}.cls-6{stroke:url(#Sky-3);}.cls-7{stroke:url(#Sky-4);}.cls-8{stroke:url(#Sky-5);}.cls-9{stroke:url(#Sky-6);}</style><linearGradient id="New_Gradient_Swatch_1" x1="16" y1="32" x2="16" gradientUnits="userSpaceOnUse"><stop offset="0.04" stop-color="#603813"/><stop offset="0.41" stop-color="#db9833"/><stop offset="0.51" stop-color="#fbb03b"/><stop offset="0.67" stop-color="#e59f35"/><stop offset="0.74" stop-color="#d89532"/><stop offset="0.81" stop-color="#e49f35"/><stop offset="0.91" stop-color="#efa738"/></linearGradient><linearGradient id="New_Gradient_Swatch_1-2" x1="4" y1="16" x2="28" y2="16" xlink:href="#New_Gradient_Swatch_1"/><linearGradient id="Sky" x1="10" y1="15.5" x2="22" y2="15.5" gradientUnits="userSpaceOnUse"><stop offset="0" stop-color="#cce0f4"/><stop offset="0.06" stop-color="#c3dcf2"/><stop offset="0.17" stop-color="#a9d2ee"/><stop offset="0.31" stop-color="#80c2e7"/><stop offset="0.46" stop-color="#47acde"/><stop offset="0.57" stop-color="#1e9cd7"/><stop offset="0.87" stop-color="#0075be"/><stop offset="0.99" stop-color="#005b97"/></linearGradient><linearGradient id="Sky-2" x1="13" y1="15.5" x2="19" y2="15.5" xlink:href="#Sky"/><linearGradient id="Sky-3" x1="15.87" y1="18.25" x2="16.12" y2="18.25" xlink:href="#Sky"/><linearGradient id="Sky-4" x1="10" y1="15.5" x2="16" y2="15.5" xlink:href="#Sky"/><linearGradient id="Sky-5" x1="15.87" y1="12.75" x2="16.12" y2="12.75" xlink:href="#Sky"/><linearGradient id="Sky-6" x1="16" y1="15.5" x2="22" y2="15.5" xlink:href="#Sky"/></defs><title>Asset 3</title><g id="Layer_2" data-name="Layer 2"><g id="Layer_8" data-name="Layer 8"><circle class="cls-1" cx="16" cy="16" r="16"/><circle class="cls-2" cx="16" cy="16" r="12"/><ellipse class="cls-3" cx="16" cy="15.5" rx="6" ry="5.5"/><ellipse class="cls-3" cx="16" cy="15.5" rx="3" ry="2.75"/><line class="cls-3" x1="16" y1="15.5" x2="16" y2="21"/><line class="cls-3" x1="16" y1="15.5" x2="10" y2="15.5"/><line class="cls-3" x1="16" y1="15.5" x2="16" y2="10"/><line class="cls-3" x1="16" y1="15.5" x2="22" y2="15.5"/><path class="cls-4" d="M16,10.25a5.53,5.53,0,0,1,5.75,5.25A5.53,5.53,0,0,1,16,20.75a5.53,5.53,0,0,1-5.75-5.25A5.53,5.53,0,0,1,16,10.25M16,10a5.76,5.76,0,0,0-6,5.5A5.76,5.76,0,0,0,16,21a5.76,5.76,0,0,0,6-5.5A5.76,5.76,0,0,0,16,10Z"/><path class="cls-5" d="M16,13a2.63,2.63,0,0,1,2.75,2.5A2.63,2.63,0,0,1,16,18a2.63,2.63,0,0,1-2.75-2.5A2.63,2.63,0,0,1,16,13m0-.25a2.88,2.88,0,0,0-3,2.75,2.88,2.88,0,0,0,3,2.75,2.88,2.88,0,0,0,3-2.75,2.88,2.88,0,0,0-3-2.75Z"/><line class="cls-6" x1="16" y1="15.5" x2="16" y2="21"/><line class="cls-7" x1="16" y1="15.5" x2="10" y2="15.5"/><line class="cls-8" x1="16" y1="15.5" x2="16" y2="10"/><line class="cls-9" x1="16" y1="15.5" x2="22" y2="15.5"/></g></g></svg>